# xmcd
#
# Track frame offsets:
# 150
# 14078
# 29530
# 44769
# 59384
# 76939
# 91270
# 106351
# 120101
# 134096
# 147244
# 164859
# 179854
#
# Disc length: 2618 seconds
#
#
# Revision: 0
# Processed by: cddbd v1.5.1PL0 Copyright (c) Steve Scherf et al.
# Submitted via: FreeRIP 2.93 
#
DISCID=c20a380d
DTITLE=Autumn Leaves - Friends around the world
DYEAR=1995
DGENRE=Country
TTITLE0=Cowboys never cry
TTITLE1=Austin City limit sign
TTITLE2=Shootin' in the dark
TTITLE3=On the border to Mexico
TTITLE4=Friends around the world
TTITLE5=Crying over you
TTITLE6=For once in my life
TTITLE7=Louisiana skies
TTITLE8=Me and an old guitar
TTITLE9=Head over heels
TTITLE10=The forgotten hero
TTITLE11=Two steps on the dancefloor
TTITLE12=Country girl
EXTD=
EXTT0=
EXTT1=
EXTT2=
EXTT3=
EXTT4=
EXTT5=
EXTT6=
EXTT7=
EXTT8=
EXTT9=
EXTT10=
EXTT11=
EXTT12=
PLAYORDER=
